# xmcd
#
# Track frame offsets:
#	183
#	31578
#	55343
#	64755
#	88540
#	102208
#	127080
#	150408
#	165893
#	195350
#	207820
#	231168
#
# Disc length: 3433 seconds
#
# Revision: 0
# Processed by: cddbd v1.5.2PL0 Copyright (c) Steve Scherf et al.
# Submitted via: audiograbber 1.83.01
#
DISCID=8b0d670c
DTITLE=J. Baird - Blues Legends - Legendary Hits
DYEAR=1900
DGENRE=Blues
TTITLE0=Big black Cadillac blues
TTITLE1=Early in the morning blues
TTITLE2=Coffee house blues
TTITLE3=I've been 'buked and scorned
TTITLE4=Stool pidgeon blues
TTITLE5=Drinkin' in the blues
TTITLE6=Ball of twine
TTITLE7=Everybody's blue
TTITLE8=Right on that shore
TTITLE9=chain gang blues
TTITLE10=blowin' the fuses
TTITLE11=Boogie Chillun
EXTD=
EXTT0=
EXTT1=
EXTT2=
EXTT3=
EXTT4=
EXTT5=
EXTT6=
EXTT7=
EXTT8=
EXTT9=
EXTT10=
EXTT11=
PLAYORDER=
